<?xml version="1.0" encoding="utf-8"?>
<!-- SVG illustration: Man with suitcase, modern flat style, matching your screenshot -->
<svg width="220" height="220" viewBox="0 0 220 220" fill="none" xmlns="http://www.w3.org/2000/svg">
  <g id="man-with-suitcase">
    <ellipse cx="110" cy="210" rx="60" ry="10" fill="#E0E0E0"/>
    <rect x="90" y="120" width="40" height="60" rx="10" fill="#FFD180"/>
    <rect x="60" y="170" width="30" height="30" rx="6" fill="#90CAF9"/>
    <rect x="130" y="170" width="30" height="30" rx="6" fill="#90CAF9"/>
    <rect x="100" y="60" width="20" height="60" rx="10" fill="#90CAF9"/>
    <ellipse cx="110" cy="50" rx="18" ry="20" fill="#FFE0B2"/>
    <rect x="105" y="80" width="10" height="30" rx="5" fill="#FFD180"/>
    <rect x="80" y="180" width="15" height="30" rx="7" fill="#B0BEC5"/>
    <rect x="125" y="180" width="15" height="30" rx="7" fill="#B0BEC5"/>
    <rect x="70" y="140" width="20" height="40" rx="8" fill="#90CAF9"/>
    <rect x="130" y="140" width="20" height="40" rx="8" fill="#90CAF9"/>
    <rect x="95" y="200" width="30" height="10" rx="5" fill="#6D4C41"/>
    <rect x="80" y="200" width="10" height="10" rx="5" fill="#6D4C41"/>
    <rect x="130" y="200" width="10" height="10" rx="5" fill="#6D4C41"/>
    <!-- Suitcase -->
    <rect x="60" y="190" width="40" height="25" rx="6" fill="#FF8A65" stroke="#BCAAA4" stroke-width="2"/>
    <rect x="70" y="185" width="20" height="8" rx="3" fill="#BCAAA4"/>
    <rect x="65" y="210" width="10" height="5" rx="2" fill="#BCAAA4"/>
    <rect x="90" y="210" width="10" height="5" rx="2" fill="#BCAAA4"/>
    <!-- Face details -->
    <ellipse cx="110" cy="55" rx="3" ry="2" fill="#6D4C41"/>
    <ellipse cx="120" cy="55" rx="3" ry="2" fill="#6D4C41"/>
    <path d="M112 62 Q115 65 118 62" stroke="#6D4C41" stroke-width="2" fill="none"/>
  </g>
</svg>
